<svg xmlns="http://www.w3.org/2000/svg" width="33.667" height="33.667" viewBox="0 0 33.667 33.667">
  <path id="Path_55261" data-name="Path 55261" d="M426.6,186.512a1.469,1.469,0,0,1-1.442-1.746c.2-1.258.411-2.513.617-3.769s.413-2.528.62-3.792q.141-.866.284-1.734a1.932,1.932,0,0,0-.535-1.737c-1.264-1.3-2.54-2.586-3.809-3.879-.626-.639-1.248-1.283-1.873-1.923-.256-.262-.523-.516-.772-.785a1.5,1.5,0,0,1-.341-1.579,1.372,1.372,0,0,1,1.13-.986c1.276-.205,2.556-.386,3.834-.58.857-.13,1.713-.269,2.57-.4.791-.12,1.581-.239,2.374-.351a1.951,1.951,0,0,0,1.591-1.175q1.435-3.054,2.882-6.1c.354-.75.7-1.5,1.059-2.253a1.406,1.406,0,0,1,2.022-.657,1.51,1.51,0,0,1,.6.7q1.087,2.306,2.175,4.61c.572,1.214,1.153,2.424,1.712,3.644a2.01,2.01,0,0,0,1.717,1.242c.646.074,1.285.192,1.929.29l2.348.358,2.593.395c.577.088,1.152.179,1.729.262a1.4,1.4,0,0,1,1.2.961,1.482,1.482,0,0,1-.317,1.6c-.408.437-.836.852-1.253,1.278q-1.425,1.461-2.852,2.924c-.776.791-1.558,1.576-2.334,2.368a1.949,1.949,0,0,0-.584,1.565c.023.311.09.618.14.926l.753,4.625q.317,1.941.64,3.883a1.508,1.508,0,0,1-.84,1.691,1.288,1.288,0,0,1-1.191-.025c-.5-.264-1-.539-1.492-.812-.695-.382-1.387-.768-2.082-1.151q-2.063-1.138-4.127-2.273a2.87,2.87,0,0,0-.912-.378,1.725,1.725,0,0,0-1.129.2c-.711.383-1.418.774-2.126,1.163l-2.481,1.366q-1.645.907-3.292,1.816A1.253,1.253,0,0,1,426.6,186.512Z" transform="translate(-419.255 -152.861)" fill="#ff8027"/>
</svg>
